<svg width="1440" height="1024" viewBox="0 0 1440 1024" fill="none" xmlns="http://www.w3.org/2000/svg">
<g clip-path="url(#clip0_1_15)">
<rect width="1440" height="1024" fill="white"/>
<rect x="-109" y="-187" width="1691" height="1267" fill="#284D6F"/>
<path d="M1193.68 248.5C1207.53 248.5 1219.27 251.407 1228.77 257.385C1238.27 263.369 1245.33 272.312 1250 284.048C1252.46 290.042 1253.68 296.536 1253.68 303.5C1253.68 323.8 1243.65 341.312 1224.19 355.996L1224.19 355.995C1195.59 378.192 1138.75 402.668 1054.12 429.508C1050.02 441.23 1045.08 463.953 1039.33 497.858L1074.33 451.462C1075.23 447.036 1077.82 442.502 1081.79 437.873L1081.79 437.862C1084.03 435.284 1086.13 433.249 1088.11 431.841C1090.04 430.458 1092.1 429.5 1094.18 429.5C1096.13 429.5 1097.84 430.334 1098.92 432.033C1099.88 433.541 1100.18 435.482 1100.18 437.5V440C1100.18 441.203 1099.99 442.392 1099.63 443.559C1095.64 470.483 1093.68 488.236 1093.68 497C1093.68 507.586 1094.64 515.236 1096.41 520.154C1097.29 522.6 1098.31 524.2 1099.35 525.167C1100.34 526.082 1101.41 526.5 1102.68 526.5C1106.21 526.5 1110.8 524.671 1116.56 520.372C1122.26 516.118 1128.82 509.66 1136.25 500.917L1146.74 487.929L1146.82 487.826L1146.92 487.732C1147.39 487.262 1148.23 486.625 1149.4 486.625C1150.65 486.625 1151.5 487.328 1151.98 487.899C1152.82 488.911 1153.29 490.462 1153.62 491.958L1153.8 492.763L1153.47 493.516C1150.6 499.964 1143.47 508.912 1132.48 520.241L1132.48 520.24C1117.43 535.951 1103.96 544.5 1092.18 544.5C1088.27 544.5 1084.83 543.796 1082.02 542.213C1077.15 539.755 1073.87 534.604 1071.79 527.585C1069.69 520.505 1068.68 511.109 1068.68 499.5C1068.68 493.454 1068.85 487.735 1069.19 482.344L1069.19 482.267L1069.2 482.19C1069.48 479.969 1069.76 477.804 1070.04 475.696C1062.1 485.215 1050.96 498.972 1036.6 516.978C1035.82 524.686 1033.37 531.244 1029.17 536.522C1027.27 539.097 1025.42 541.152 1023.61 542.587C1021.8 544.015 1019.8 545 1017.68 545C1016.8 545 1015.68 544.777 1014.79 543.893C1013.96 543.058 1013.71 542.01 1013.69 541.15C1013 531.455 1015.07 513.166 1019.72 486.569C1022.06 473.214 1024.23 462.008 1026.24 452.958L1026.25 452.926L1026.26 452.894C1027.95 446.119 1029.48 440.529 1030.84 436.144C1023.91 438.448 1021.07 441.689 1020.67 445.276L1020.66 445.344L1020.65 445.411C1020.3 447.52 1019.78 449.371 1018.97 450.76C1018.13 452.193 1016.74 453.5 1014.68 453.5C1013.75 453.5 1012.78 453.261 1011.93 452.625C1011.1 451.998 1010.6 451.145 1010.31 450.291C1009.79 448.73 1009.87 446.787 1010.19 444.749C1010.44 439.312 1013.07 434.619 1017.7 430.714C1022.08 427.019 1028.3 423.98 1036.18 421.501C1040.46 407.517 1045.53 393.848 1051.39 380.495L1051.4 380.472L1051.42 380.449C1057.78 366.708 1064.82 353.301 1072.53 340.23L1072.54 340.211L1072.55 340.192C1090.66 310.687 1109.85 288.09 1130.16 272.516C1150.83 256.591 1172.02 248.5 1193.68 248.5ZM1195.18 268C1188.34 268 1182.38 268.653 1177.29 269.926L1177.21 269.946L1177.12 269.961C1142.59 276.151 1115.17 295.993 1094.83 329.789L1094.8 329.824L1094.78 329.858C1091.25 335.322 1086.32 345.472 1079.99 360.473C1074.08 374.772 1066.87 393.003 1058.34 415.169C1080.57 408.432 1107.33 397.798 1138.63 383.233L1138.63 383.231C1175.25 366.253 1201.89 351.345 1218.67 338.514C1235.05 325.729 1242.68 313.046 1242.68 300.5C1242.68 297.142 1242.07 294.16 1240.9 291.516L1240.88 291.473L1240.86 291.429C1234.73 276.104 1220 268 1195.18 268Z" stroke="black" stroke-width="5"/>
<path d="M978.062 410C985.523 410 992.058 411.963 997.541 415.984C1002.89 419.907 1006.06 424.566 1006.06 430C1006.06 431.712 1005.64 433.376 1004.87 434.97C1004.39 436.28 1003.29 438 1001.06 438C999.525 438 998.5 436.93 998.017 436.351C997.419 435.634 996.86 434.686 996.326 433.618L996.131 433.227L996.08 432.792C995.793 430.354 995.013 428.877 994.021 427.988C993.03 427.102 991.489 426.5 989.062 426.5C981.681 426.5 973.627 430.483 964.867 439.23C956.429 448.327 952.562 456.568 952.562 464C952.562 470.382 956.856 479.275 966.465 490.878L967.367 491.944C971.815 497.243 975.244 501.978 977.61 506.14C980.106 510.528 981.562 514.524 981.562 518C981.562 519.567 981.321 521.27 980.865 523.097C983.956 521.497 987.437 519.579 991.31 517.337L991.334 517.322L991.357 517.31C997.994 513.66 1005.8 509.174 1014.79 503.85L1016.14 503.048L1017.45 503.92C1018.61 504.697 1018.8 505.94 1018.69 506.749C1018.6 507.435 1018.3 508.025 1018.06 508.421C1017.57 509.266 1016.76 510.249 1015.78 511.317C1013.77 513.5 1010.56 516.528 1006.22 520.372L1006.04 520.529L1005.84 520.649L974.372 539.332C972.694 541.946 970.003 544.2 966.553 546.171C962.829 548.299 958.051 550.196 952.282 551.894C941.697 555.302 930.453 557 918.562 557C912.13 557 906.976 556.334 903.343 554.804C901.501 554.028 899.918 552.977 898.79 551.552C897.632 550.089 897.062 548.369 897.062 546.5C897.062 542.484 898.826 539.243 902.19 537.035C905.388 534.936 909.898 533.849 915.406 533.505L915.443 533.503C929.08 532.854 945.939 531.245 966.034 528.674C968.146 525.001 969.062 521.965 969.062 519.5C969.062 515.325 965.991 509.969 958.422 503.387L958.419 503.384C939.889 487.212 930.062 471.248 930.062 455.5C930.062 450.093 931.329 445.018 933.861 440.314L933.883 440.274L933.905 440.235C945.512 420.435 960.21 410 978.062 410Z" stroke="black" stroke-width="5"/>
<path d="M890.098 419.5C894.206 419.5 897.626 419.919 900.151 420.929C902.718 421.955 904.727 423.782 905.068 426.612C905.48 428.654 905.203 431.298 904.538 434.292C903.839 437.436 902.636 441.289 900.958 445.824C895.971 460.455 892.501 471.861 890.528 480.078L890.529 480.079C885.546 501.008 883.098 517.455 883.098 529.5C883.098 535.392 883.764 539.469 884.882 541.984C885.428 543.213 886.029 543.949 886.598 544.375C887.135 544.778 887.767 545 888.598 545C893.698 545 899.955 542.137 907.457 535.613L907.471 535.602C910.968 532.604 913.532 530.37 915.175 528.892C916.003 528.146 916.567 527.621 916.893 527.295C917.073 527.114 917.107 527.067 917.077 527.105C917.064 527.122 917.027 527.172 916.979 527.247C916.946 527.301 916.833 527.481 916.745 527.744C916.698 527.884 916.401 528.765 916.933 529.723C917.058 529.948 917.202 530.133 917.355 530.286C917.401 530.245 917.445 530.204 917.488 530.164C917.503 529.96 917.497 529.849 917.492 529.811C917.499 529.844 917.522 529.942 917.589 530.072C918.485 529.249 918.99 528.751 919.098 528.573V526C919.965 526 920.889 526.321 921.573 527.104C922.177 527.793 922.379 528.6 922.453 529.189C922.592 530.303 922.383 531.628 922.056 532.968C921.58 536.368 919.497 539.636 916.365 542.768C907.362 551.771 897.593 556.5 887.098 556.5C877.853 556.5 870.537 553.49 865.623 547.158C860.802 540.947 858.598 531.921 858.598 520.5C858.598 508.185 861.158 492.942 866.188 474.831L866.19 474.824L871.204 456.96L843.479 488.647C835.171 498.284 828.721 506.226 824.11 512.483C819.421 518.848 816.799 523.084 815.938 525.378C813.847 530.955 811.108 535.364 807.608 538.391C804.06 541.46 799.85 543 795.098 543C793.324 543 791.224 542.572 790.018 540.762C788.877 539.051 789.148 536.994 789.693 535.312L797.677 504.375L797.683 504.355L797.688 504.335C800.329 494.758 802.135 486.045 803.117 478.189C804.108 469.931 804.598 462.705 804.598 456.5C804.598 453.931 804.437 451.741 804.132 449.911C803.776 447.777 803.598 445.64 803.598 443.5C803.598 438.219 806.274 433.576 810.982 429.592C815.625 425.663 820.51 423.5 825.598 423.5C828.528 423.5 831.237 424.343 832.89 426.684C834.461 428.91 834.603 431.855 834.06 434.935C833.056 440.621 831.886 446.47 830.551 452.482C829.554 458.133 828.557 463.784 827.56 469.435L827.551 469.485L827.54 469.535L821.289 498.054C839.342 480.228 858.413 455.619 878.49 424.155C880.575 420.636 885.013 419.5 890.098 419.5Z" stroke="black" stroke-width="5"/>
<path d="M748.82 411.5C756.211 411.5 762.966 413.259 769.026 416.809C772.323 418.473 774.925 420.707 776.694 423.557C778.48 426.433 779.32 429.782 779.32 433.5C779.32 437.644 778.468 441.231 776.464 443.975C774.416 446.777 771.393 448.388 767.71 448.97L762.422 449.805L765.177 445.214C766.983 442.204 767.82 439.31 767.82 436.5C767.82 433.308 766.928 431.345 765.544 430.127C764.099 428.855 761.675 428 757.82 428C750.665 428 742.56 431.587 733.447 439.398L733.445 439.4C710.723 458.829 694.137 481.344 683.633 506.949L683.628 506.962C680.352 514.824 678.82 521.139 678.82 526C678.82 527.955 679.173 528.978 679.501 529.452C679.714 529.759 680.009 530 680.82 530C681.698 530 683.454 529.421 686.322 527.536C689.074 525.728 692.495 522.96 696.606 519.179C699.271 516.671 703.658 511.452 709.833 503.358C715.972 495.311 723.784 484.549 733.275 471.062L733.281 471.054L733.286 471.047C735.839 467.474 738.217 464.674 740.424 462.743C742.562 460.872 744.896 459.5 747.32 459.5C749.291 459.5 750.543 460.851 751.241 462.072C751.945 463.304 752.425 464.936 752.776 466.782C753.489 470.521 753.82 475.963 753.82 483V510.737C755.286 517.804 757.22 522.839 759.489 526.061C761.722 529.23 764.152 530.5 766.82 530.5C770.294 530.5 774.732 529.332 780.216 526.756C785.865 523.929 791.451 519.486 796.957 513.333L796.98 513.307L797.006 513.28L806.006 503.78L806.436 503.326L807.029 503.128C808.379 502.678 809.666 502.997 810.686 503.579C811.656 504.133 812.511 504.987 813.272 505.939L814.149 507.035L813.67 508.355C812.814 510.709 810.701 513.485 807.762 516.593C804.754 519.772 800.633 523.547 795.435 527.907L795.436 527.908C782.22 539.091 769.661 545 757.82 545C754.537 545 751.27 544.452 748.029 543.372L748.016 543.367L748.003 543.362C737.977 539.892 732.06 529.308 729.355 513.42L729.353 513.399L729.35 513.38C728.688 509.08 728.031 505.471 727.38 502.542L727.351 502.41L727.336 502.276C727.26 501.595 727.193 500.937 727.134 500.301C724.024 504.884 719.566 510.971 713.808 518.517L713.803 518.522C706.571 527.941 699.909 534.977 693.812 539.507C687.752 544.008 681.91 546.281 676.454 545.473L676.444 545.472L676.435 545.47C670.561 544.552 665.908 541.968 662.783 537.574C659.708 533.25 658.32 527.463 658.32 520.5C658.32 499.404 667.994 476.378 686.827 451.491C706.355 425.235 727.001 411.5 748.82 411.5Z" stroke="black" stroke-width="5"/>
<path d="M633.727 430.5C636.216 430.5 638.488 430.841 640.217 431.829C642.155 432.937 643.227 434.761 643.227 437C643.227 446.659 640.155 464.762 634.164 491.056C629.119 514.038 624.619 530.645 620.64 540.681C627.284 538.416 630.183 535.362 630.765 532.065L630.767 532.053C631.129 530.059 631.719 528.26 632.705 526.904C633.77 525.44 635.312 524.5 637.227 524.5C637.997 524.5 638.783 524.7 639.488 525.17C640.178 525.63 640.648 526.252 640.963 526.882C641.557 528.071 641.727 529.539 641.727 531C641.727 536.873 639.038 541.912 634.077 546.046C629.415 549.931 622.706 553.062 614.143 555.552C604.115 583.308 590.666 609.595 573.794 634.406L573.792 634.409C554.348 662.905 534.31 684.331 513.645 698.56C492.993 712.779 472.341 720 451.727 720C436.881 720 424.484 716.843 414.715 710.33C404.934 703.81 398.011 694.073 393.865 681.322C391.781 675.746 390.727 670.134 390.727 664.5C390.727 643.476 401.649 625.457 422.779 610.461L422.799 610.447L422.818 610.435C452.421 590.251 510.598 568.932 596.939 546.383C599.991 539.341 603.454 525.339 607.266 504.06L607.269 504.042L607.272 504.025L613.377 472.481C601.96 491.83 589.972 508.773 577.406 523.299C575.897 527.219 573.111 531.643 569.191 536.544C565.471 541.279 561.483 544.5 557.227 544.5C555.281 544.5 553.574 543.666 552.492 541.967C551.533 540.459 551.227 538.518 551.227 536.5C551.227 534.058 551.4 531.885 551.775 530.01C556.44 506.684 558.727 490.064 558.727 480C558.727 472.616 557.852 467.432 556.336 464.183C555.593 462.59 554.744 461.567 553.867 460.94C553.015 460.332 552.002 460 550.727 460C548.751 460 545.567 461.042 540.967 463.671L540.966 463.67C540.098 464.189 539.3 464.617 538.586 464.923C537.922 465.207 537.082 465.5 536.227 465.5C535.32 465.5 534.183 465.343 533.227 464.625C532.134 463.806 531.727 462.61 531.727 461.5C531.727 457.931 534.051 455.286 537.342 453.413C545.859 446.967 554.007 443.5 561.727 443.5C565.11 443.5 568.213 444.256 570.967 445.829H570.966C574.884 447.924 577.547 451.879 579.231 457.108C580.927 462.373 581.727 469.206 581.727 477.5C581.727 485.11 581.236 492.191 580.248 498.737C584.022 493.902 588.185 488.487 592.734 482.489C599.968 472.625 608.334 461.305 617.833 448.529C618.565 443.107 620.098 438.682 622.667 435.542C625.433 432.161 629.211 430.5 633.727 430.5ZM591.893 560.118C570.605 565.439 544.301 574.385 512.955 586.988L509.666 588.316C472.714 603.297 445.752 616.715 428.649 628.556L428.64 628.563L428.63 628.568C410.22 641.061 401.727 653.739 401.727 666.5C401.727 669.047 402.124 671.609 402.932 674.192L403.099 674.709L403.103 674.723C405.897 683.262 411.291 689.629 419.396 693.915C427.574 698.24 438.626 700.5 452.727 700.5C489.534 700.5 519.99 684.597 544.231 652.493L544.243 652.478C554.697 638.856 570.57 608.174 591.893 560.118Z" stroke="black" stroke-width="5"/>
<path d="M493.449 411.5C500.84 411.5 507.595 413.259 513.655 416.809C516.952 418.473 519.554 420.707 521.323 423.557C523.109 426.433 523.949 429.782 523.949 433.5C523.949 437.644 523.097 441.231 521.093 443.975C519.045 446.777 516.022 448.388 512.339 448.97L507.051 449.805L509.806 445.214C511.612 442.204 512.449 439.31 512.449 436.5C512.449 433.308 511.557 431.345 510.173 430.127C508.727 428.855 506.304 428 502.449 428C495.294 428 487.189 431.587 478.076 439.398L478.074 439.4C455.352 458.829 438.766 481.344 428.262 506.949L428.257 506.962C424.981 514.824 423.449 521.139 423.449 526C423.449 527.955 423.802 528.978 424.13 529.452C424.343 529.759 424.638 530 425.449 530C426.326 530 428.083 529.421 430.951 527.536C433.703 525.728 437.124 522.96 441.235 519.179C443.9 516.671 448.287 511.452 454.462 503.358C460.601 495.311 468.413 484.549 477.904 471.062L477.91 471.054L477.915 471.047C480.467 467.474 482.846 464.674 485.053 462.743C487.191 460.872 489.525 459.5 491.949 459.5C493.92 459.5 495.172 460.851 495.87 462.072C496.574 463.304 497.054 464.936 497.405 466.782C498.117 470.521 498.449 475.963 498.449 483V510.737C499.915 517.804 501.848 522.839 504.118 526.061C506.351 529.23 508.781 530.5 511.449 530.5C514.923 530.5 519.36 529.332 524.845 526.756C530.494 523.929 536.08 519.486 541.586 513.333L541.609 513.307L541.635 513.28L550.635 503.78L551.064 503.326L551.658 503.128C553.008 502.678 554.295 502.997 555.314 503.579C556.284 504.133 557.14 504.987 557.901 505.939L558.778 507.035L558.299 508.355C557.443 510.709 555.33 513.485 552.391 516.593C549.383 519.772 545.262 523.547 540.063 527.907L540.064 527.908C526.849 539.091 514.289 545 502.449 545C499.166 545 495.899 544.452 492.658 543.372L492.645 543.367L492.632 543.362C482.605 539.892 476.689 529.308 473.984 513.42L473.981 513.399L473.979 513.38C473.317 509.08 472.66 505.471 472.009 502.542L471.979 502.41L471.965 502.276C471.889 501.595 471.822 500.937 471.763 500.301C468.653 504.884 464.195 510.971 458.437 518.517L458.432 518.522C451.2 527.941 444.538 534.977 438.44 539.507C432.381 544.008 426.539 546.281 421.083 545.473L421.073 545.472L421.063 545.47C415.189 544.552 410.537 541.968 407.412 537.574C404.337 533.25 402.949 527.463 402.949 520.5C402.949 499.404 412.623 476.378 431.456 451.491C450.984 425.235 471.63 411.5 493.449 411.5Z" stroke="black" stroke-width="5"/>
<path d="M330.515 473.653C317.364 523.04 294.83 566.54 262.905 604.118V604.119C228.654 644.415 193.02 665 156 665C151.913 665 147.828 664.663 143.747 663.991C142.908 663.95 141.909 663.694 141.107 662.893C140.223 662.008 140 660.885 140 660C140 658.9 140.209 657.612 141.048 656.564C141.972 655.409 143.282 655 144.5 655H144.707L144.911 655.034C148.777 655.679 152.64 656 156.5 656C189.807 656 222.841 637.26 255.599 598.877C285.126 563.567 306.088 522.956 318.487 477.015C256.502 493.683 208.682 520.449 174.839 557.193L174.83 557.203L174.821 557.212C143.599 590.427 128.5 618.99 128.5 643C128.5 654.235 131.502 662.215 137.081 667.423C142.693 672.66 151.344 675.5 163.5 675.5C184.431 675.5 209.624 665.798 239.182 645.89L240.593 644.934C277.983 619.14 312.941 561.359 345.183 470.792L330.515 473.653ZM385.707 303.16C379.717 303.525 372.739 304.131 364.767 304.985L364.726 304.99L364.685 304.993C355.797 305.652 345.575 306.803 334.016 308.451C323.728 311.311 314.442 314.168 306.151 317.02C309.547 320.446 312.828 324.272 315.996 328.495L316.729 329.478C331.98 350.218 339.5 376.961 339.5 409.5C339.5 426.165 337.592 443.109 333.788 460.328L340.501 459.049C342.02 458.682 343.792 458.514 345.774 458.502C347.128 458.275 348.401 458.049 349.593 457.823C359.685 427.746 367.674 399.787 373.562 373.944C379.29 348.805 383.336 325.211 385.707 303.16ZM415.5 280.5C415.5 281.616 415.684 283.292 416.089 285.584L438.104 286.502L438.121 286.503L438.139 286.504C441.152 286.671 443.565 286.841 445.362 287.012C446.867 287.155 448.17 287.318 449.016 287.547C455.313 288.383 460.251 289.402 463.72 290.647C465.465 291.274 466.982 292.007 468.132 292.904C469.252 293.779 470.241 294.991 470.465 296.589H470.466C470.649 297.688 470.736 298.773 470.6 299.729C470.478 300.579 470.09 301.848 468.882 302.589C468.282 303.005 467.649 303.114 467.411 303.153C466.967 303.227 466.479 303.25 466 303.25C465.029 303.25 463.755 303.155 462.224 302.984L462.116 302.973L462.01 302.951C460.501 302.65 458.999 302.5 457.5 302.5H436.975L436.95 302.499L414.203 302.044C408.485 347.409 395.779 398.148 376.119 454.247L394.33 453.006L394.415 453H398C400.881 453 403.241 453.165 404.947 453.566C405.785 453.763 406.675 454.064 407.41 454.583C408.207 455.146 409 456.117 409 457.5C409 460.094 406.954 461.506 405.156 462.205C403.292 462.93 400.74 463.32 397.684 463.492L397.685 463.493C389.237 464.119 380.789 465.041 372.341 466.258C336.11 566.524 295.384 631.427 249.843 660.107C219.295 679.577 191.658 689.5 167 689.5C150.188 689.5 136.946 684.683 127.682 674.716C118.186 665.193 113.5 652.878 113.5 638C113.5 633.18 114.014 628.365 115.039 623.557C115.74 618.705 117.121 613.557 119.159 608.122C127.677 583.965 144.802 560.316 170.319 537.149L170.327 537.142C210.356 501.115 260.912 476.393 321.894 462.904C325.635 445.288 327.5 428.321 327.5 412C327.5 380.077 320.104 354.501 305.539 335.053C301.12 329.753 297.127 325.412 293.557 322.01C266.947 335.36 254.5 351.277 254.5 369.5C254.5 382.938 260.708 395.12 273.615 406.092L274.206 406.587C286.645 416.903 301.758 422.892 319.649 424.502C320.616 424.515 321.718 424.665 322.661 425.231C323.857 425.949 324.5 427.153 324.5 428.5C324.5 431.083 323.59 433.474 321.226 434.804C319.112 435.993 316.382 435.99 313.539 435.457V435.456C288.581 431.068 268.322 422.601 252.912 409.931L252.909 409.929C239.148 398.576 232 385.419 232 370.5C232 347.195 247.694 327.619 277.512 311.544C271.383 308.853 264.722 307.5 257.5 307.5C246.369 307.5 235.852 310.829 225.902 317.569L225.871 317.591C206.395 330.362 196.5 350.809 196.5 379.5C196.5 399.697 201.865 416.998 212.516 431.522L212.535 431.548L212.554 431.575C223.433 447.254 238.367 455.36 257.583 456.001L257.719 456.006L257.854 456.025C260.2 456.361 262.019 456.662 263.273 456.931C263.885 457.062 264.453 457.203 264.903 457.364C265.112 457.439 265.431 457.564 265.742 457.765C265.897 457.864 266.158 458.05 266.402 458.347C266.651 458.649 267 459.214 267 460C267 460.771 266.8 461.557 266.33 462.262C265.871 462.951 265.248 463.421 264.618 463.736C263.429 464.331 261.961 464.5 260.5 464.5C237.075 464.5 218.018 455.322 203.541 437.053L203.531 437.041C191.154 421.225 185 402.335 185 380.5C185 349.411 197.021 325.752 221.127 309.911C233.192 301.983 246.334 298 260.5 298C270.572 298 280.448 300.435 290.106 305.251C293.801 303.723 297.633 302.194 301.603 300.667C306.001 298.975 310.565 297.454 315.292 296.103L316.728 295.691C331.792 291.506 357.282 288.315 393.005 286.058C396.614 282.954 399.758 280.547 402.425 278.88C405.139 277.183 407.743 276 410 276C411.142 276 412.346 276.226 413.387 276.92C414.479 277.648 415.131 278.716 415.426 279.894L415.5 280.192V280.5Z" stroke="black" stroke-width="5"/>
</g>
<defs>
<clipPath id="clip0_1_15">
<rect width="1440" height="1024" fill="white"/>
</clipPath>
</defs>
</svg>
